<svg width="24" height="24" viewBox="0 0 24 24" fill="none" xmlns="http://www.w3.org/2000/svg">
<path d="M12 17C14.7614 17 17 14.7614 17 12C17 9.23858 14.7614 7 12 7C9.23858 7 7 9.23858 7 12C7 14.7614 9.23858 17 12 17Z" fill="#FAFAFA"/>
<path d="M21 13H20C19.7348 13 19.4804 12.8946 19.2929 12.7071C19.1054 12.5196 19 12.2652 19 12C19 11.7348 19.1054 11.4804 19.2929 11.2929C19.4804 11.1054 19.7348 11 20 11H21C21.2652 11 21.5196 11.1054 21.7071 11.2929C21.8946 11.4804 22 11.7348 22 12C22 12.2652 21.8946 12.5196 21.7071 12.7071C21.5196 12.8946 21.2652 13 21 13Z" fill="#FAFAFA"/>
<path d="M4 13H3C2.73478 13 2.48043 12.8946 2.29289 12.7071C2.10536 12.5196 2 12.2652 2 12C2 11.7348 2.10536 11.4804 2.29289 11.2929C2.48043 11.1054 2.73478 11 3 11H4C4.26522 11 4.51957 11.1054 4.70711 11.2929C4.89464 11.4804 5 11.7348 5 12C5 12.2652 4.89464 12.5196 4.70711 12.7071C4.51957 12.8946 4.26522 13 4 13Z" fill="#FAFAFA"/>
<path d="M17.66 7.33999C17.4116 7.32874 17.1763 7.22535 17 7.04999C16.8138 6.86263 16.7092 6.60917 16.7092 6.34499C16.7092 6.0808 16.8138 5.82735 17 5.63999L17.71 4.92999C17.7997 4.82531 17.91 4.74029 18.034 4.68026C18.1581 4.62024 18.2932 4.58651 18.431 4.58119C18.5687 4.57587 18.706 4.59908 18.8343 4.64935C18.9627 4.69963 19.0792 4.77588 19.1767 4.87334C19.2741 4.97079 19.3504 5.08734 19.4007 5.21567C19.4509 5.34399 19.4741 5.48132 19.4688 5.61904C19.4635 5.75676 19.4298 5.89189 19.3697 6.01596C19.3097 6.14002 19.2247 6.25034 19.12 6.33999L18.41 7.04999C18.3119 7.1476 18.1946 7.22378 18.0655 7.27369C17.9364 7.32361 17.7983 7.34619 17.66 7.33999Z" fill="#FAFAFA"/>
<path d="M5.63995 19.36C5.50835 19.3608 5.37788 19.3355 5.25605 19.2858C5.13421 19.236 5.02339 19.1627 4.92995 19.07C4.7437 18.8826 4.63916 18.6292 4.63916 18.365C4.63916 18.1008 4.7437 17.8474 4.92995 17.66L5.63995 17C5.83125 16.8362 6.07733 16.7506 6.32901 16.7603C6.58068 16.77 6.81942 16.8744 6.99752 17.0524C7.17561 17.2305 7.27994 17.4693 7.28966 17.721C7.29939 17.9726 7.21378 18.2187 7.04995 18.41L6.33995 19.12C6.14589 19.2866 5.89539 19.3725 5.63995 19.36Z" fill="#FAFAFA"/>
<path d="M12 5C11.7348 5 11.4804 4.89464 11.2929 4.70711C11.1054 4.51957 11 4.26522 11 4V3C11 2.73478 11.1054 2.48043 11.2929 2.29289C11.4804 2.10536 11.7348 2 12 2C12.2652 2 12.5196 2.10536 12.7071 2.29289C12.8946 2.48043 13 2.73478 13 3V4C13 4.26522 12.8946 4.51957 12.7071 4.70711C12.5196 4.89464 12.2652 5 12 5Z" fill="#FAFAFA"/>
<path d="M12 22C11.7348 22 11.4804 21.8946 11.2929 21.7071C11.1054 21.5196 11 21.2652 11 21V20C11 19.7348 11.1054 19.4804 11.2929 19.2929C11.4804 19.1054 11.7348 19 12 19C12.2652 19 12.5196 19.1054 12.7071 19.2929C12.8946 19.4804 13 19.7348 13 20V21C13 21.2652 12.8946 21.5196 12.7071 21.7071C12.5196 21.8946 12.2652 22 12 22Z" fill="#FAFAFA"/>
<path d="M6.34003 7.34C6.07769 7.3389 5.82629 7.23475 5.64003 7.05L4.93003 6.34C4.76621 6.1487 4.6806 5.90262 4.69032 5.65095C4.70004 5.39927 4.80437 5.16053 4.98247 4.98244C5.16056 4.80434 5.3993 4.70001 5.65098 4.69029C5.90266 4.68057 6.14873 4.76618 6.34003 4.93L7.05003 5.64C7.23628 5.82736 7.34083 6.08082 7.34083 6.345C7.34083 6.60919 7.23628 6.86264 7.05003 7.05C6.95659 7.14268 6.84578 7.21601 6.72394 7.26577C6.6021 7.31554 6.47164 7.34076 6.34003 7.34Z" fill="#FAFAFA"/>
<path d="M18.3601 19.36C18.0978 19.3589 17.8464 19.2547 17.6601 19.07L17.0001 18.36C16.8944 18.17 16.8536 17.9508 16.8837 17.7355C16.9138 17.5202 17.0132 17.3205 17.1669 17.1668C17.3206 17.0131 17.5203 16.9136 17.7356 16.8835C17.9509 16.8534 18.1701 16.8943 18.3601 17L19.0701 17.71C19.2564 17.8974 19.3609 18.1508 19.3609 18.415C19.3609 18.6792 19.2564 18.9326 19.0701 19.12C18.8735 19.289 18.6189 19.3751 18.3601 19.36Z" fill="#FAFAFA"/>
</svg>
