<svg width="24" height="24" viewBox="0 0 24 24" fill="none" xmlns="http://www.w3.org/2000/svg">
<path d="M20.21 15.32C19.6262 16.7062 18.6875 17.9141 17.4883 18.8221C16.2891 19.7301 14.8719 20.3061 13.3793 20.492C11.8867 20.678 10.3714 20.4673 8.98612 19.8813C7.60082 19.2953 6.3944 18.3546 5.48834 17.154C4.58229 15.9534 4.00859 14.5352 3.82503 13.0423C3.64147 11.5494 3.85453 10.0345 4.44275 8.65013C5.03097 7.26577 5.97359 6.06085 7.17566 5.15672C8.37774 4.25259 9.79683 3.68116 11.29 3.49999C11.3936 3.48762 11.4985 3.50796 11.5899 3.55817C11.6814 3.60838 11.7548 3.68594 11.8 3.77999C11.8473 3.8723 11.864 3.97721 11.8478 4.07964C11.8317 4.18207 11.7834 4.27672 11.71 4.34999C11.0971 4.95809 10.6122 5.6829 10.2842 6.48158C9.95609 7.28026 9.79147 8.1366 9.80002 8.99999C9.80882 10.1348 10.1114 11.2481 10.6784 12.2312C11.2453 13.2143 12.0573 14.0338 13.0351 14.6098C14.013 15.1859 15.1233 15.4988 16.2581 15.5181C17.3928 15.5374 18.5132 15.2624 19.51 14.72C19.6026 14.6722 19.7074 14.6534 19.8108 14.6658C19.9142 14.6783 20.0115 14.7216 20.09 14.79C20.1569 14.8587 20.2036 14.9445 20.2248 15.0381C20.2459 15.1316 20.2408 15.2292 20.21 15.32V15.32Z" fill="#121212"/>
</svg>
