<svg width="24" height="24" viewBox="0 0 24 24" fill="none" xmlns="http://www.w3.org/2000/svg">
<path d="M12 0.328125C5.55314 0.328125 0.328125 5.55319 0.328125 12.0001C0.328125 18.4469 5.55314 23.6719 12 23.6719C18.4469 23.6719 23.6719 18.4469 23.6719 12.0001C23.6719 5.55319 18.4469 0.328125 12 0.328125ZM12 22.7381C6.07922 22.7381 1.26188 17.9207 1.26188 12.0001C1.26188 6.07931 6.07922 1.26188 12 1.26188C17.9207 1.26188 22.7381 6.07927 22.7381 12.0001C22.7381 17.9207 17.9207 22.7381 12 22.7381Z" fill="#AFAFAF"/>
<path d="M17.2756 7.36279L16.6154 6.70256L11.9936 11.3244L7.39376 6.7245L6.73352 7.38468L11.3335 11.9846L6.73352 16.5848L7.39376 17.245L11.9936 12.6445L16.6154 17.2669L17.2756 16.6066L12.6538 11.9846L17.2756 7.36279Z" fill="#AFAFAF"/>
</svg>
