<svg width="16" height="16" viewBox="0 0 16 16" fill="none" xmlns="http://www.w3.org/2000/svg">
<path d="M8 16C12.4183 16 16 12.4183 16 8C16 3.58172 12.4183 0 8 0C3.58172 0 0 3.58172 0 8C0 12.4183 3.58172 16 8 16Z" fill="#FF7979"/>
<path d="M8.66668 4.66667C8.66668 4.29848 8.3682 4 8.00001 4C7.63182 4 7.33334 4.29848 7.33334 4.66667V9.33333C7.33334 9.70152 7.63182 10 8.00001 10C8.3682 10 8.66668 9.70152 8.66668 9.33333V4.66667Z" fill="white"/>
<path d="M8.66668 11.9999C8.66668 11.6317 8.3682 11.3333 8.00001 11.3333C7.63182 11.3333 7.33334 11.6317 7.33334 11.9999C7.33334 12.3681 7.63182 12.6666 8.00001 12.6666C8.3682 12.6666 8.66668 12.3681 8.66668 11.9999Z" fill="white"/>
</svg>
